REM DIRINDEX 1\2\6,1\2\7,1\2\8,1\2\9,1\3\10,1\3\11,1\4\12,1\4\13,1\4\14,1\5\15,1\5\16,1\5\17
REM DIRNAME folder01,folder02,folder03,folder04,folder05,folder06,folder07,folder08,folder09,folder10,folder11,folder12,folder13,folder14,folder15,folder16,folder17
TITLE ""
FILE "1900_2_sec16_1501_1518.mp3" MP3
  TRACK 01 AUDIO
    TITLE "0:"
    INDEX 01 00:00:00
  TRACK 02 AUDIO
    TITLE "12:cjc020_5148"
    INDEX 01 00:03:21
  TRACK 03 AUDIO
    TITLE "0:"
    INDEX 01 00:07:72
  TRACK 04 AUDIO
    TITLE "12:cjc020_5149"
    INDEX 01 00:08:42
  TRACK 05 AUDIO
    TITLE "0:"
    INDEX 01 00:10:51
  TRACK 06 AUDIO
    TITLE "12:cjc020_5150"
    INDEX 01 00:11:19
  TRACK 07 AUDIO
    TITLE "0:"
    INDEX 01 00:12:42
  TRACK 08 AUDIO
    TITLE "13:cjc020_5151"
    INDEX 01 00:13:43
  TRACK 09 AUDIO
    TITLE "0:"
    INDEX 01 00:14:66
  TRACK 10 AUDIO
    TITLE "14:cjc020_5152"
    INDEX 01 00:14:68
  TRACK 11 AUDIO
    TITLE "0:"
    INDEX 01 00:17:18
  TRACK 12 AUDIO
    TITLE "13:cjc020_5153"
    INDEX 01 00:18:01
  TRACK 13 AUDIO
    TITLE "0:"
    INDEX 01 00:19:09
  TRACK 14 AUDIO
    TITLE "14:cjc020_5154"
    INDEX 01 00:19:15
  TRACK 15 AUDIO
    TITLE "0:"
    INDEX 01 00:22:64
  TRACK 16 AUDIO
    TITLE "13:cjc020_5155"
    INDEX 01 00:23:44
  TRACK 17 AUDIO
    TITLE "0:"
    INDEX 01 00:24:49
  TRACK 18 AUDIO
    TITLE "14:cjc020_5156"
    INDEX 01 00:24:55
  TRACK 19 AUDIO
    TITLE "0:"
    INDEX 01 00:28:10
  TRACK 20 AUDIO
    TITLE "13:cjc020_5157"
    INDEX 01 00:28:62
  TRACK 21 AUDIO
    TITLE "0:"
    INDEX 01 00:29:66
  TRACK 22 AUDIO
    TITLE "14:cjc020_5158"
    INDEX 01 00:29:72
  TRACK 23 AUDIO
    TITLE "0:"
    INDEX 01 00:31:16
  TRACK 24 AUDIO
    TITLE "13:cjc020_5159"
    INDEX 01 00:32:00
  TRACK 25 AUDIO
    TITLE "0:"
    INDEX 01 00:33:13
  TRACK 26 AUDIO
    TITLE "14:cjc020_5160"
    INDEX 01 00:33:15
  TRACK 27 AUDIO
    TITLE "0:"
    INDEX 01 00:35:21
  TRACK 28 AUDIO
    TITLE "13:cjc020_5161"
    INDEX 01 00:36:01
  TRACK 29 AUDIO
    TITLE "0:"
    INDEX 01 00:37:16
  TRACK 30 AUDIO
    TITLE "14:cjc020_5162"
    INDEX 01 00:37:22
  TRACK 31 AUDIO
    TITLE "0:"
    INDEX 01 00:39:03
  TRACK 32 AUDIO
    TITLE "13:cjc020_5163"
    INDEX 01 00:39:60
  TRACK 33 AUDIO
    TITLE "0:"
    INDEX 01 00:40:64
  TRACK 34 AUDIO
    TITLE "14:cjc020_5164"
    INDEX 01 00:40:68
  TRACK 35 AUDIO
    TITLE "0:"
    INDEX 01 00:43:37
  TRACK 36 AUDIO
    TITLE "13:cjc020_5165"
    INDEX 01 00:44:18
  TRACK 37 AUDIO
    TITLE "0:"
    INDEX 01 00:45:24
  TRACK 38 AUDIO
    TITLE "14:cjc020_5166"
    INDEX 01 00:45:32
  TRACK 39 AUDIO
    TITLE "0:"
    INDEX 01 00:47:56
  TRACK 40 AUDIO
    TITLE "13:cjc020_5167"
    INDEX 01 00:48:34
  TRACK 41 AUDIO
    TITLE "0:"
    INDEX 01 00:49:43
  TRACK 42 AUDIO
    TITLE "14:cjc020_5168"
    INDEX 01 00:49:47
  TRACK 43 AUDIO
    TITLE "0:"
    INDEX 01 00:51:07
  TRACK 44 AUDIO
    TITLE "13:cjc020_5169"
    INDEX 01 00:51:62
  TRACK 45 AUDIO
    TITLE "0:"
    INDEX 01 00:52:57
  TRACK 46 AUDIO
    TITLE "14:cjc020_5170"
    INDEX 01 00:52:61
  TRACK 47 AUDIO
    TITLE "0:"
    INDEX 01 00:56:24
  TRACK 48 AUDIO
    TITLE "13:cjc020_5171"
    INDEX 01 00:57:05
  TRACK 49 AUDIO
    TITLE "0:"
    INDEX 01 00:58:07
  TRACK 50 AUDIO
    TITLE "14:cjc020_5172"
    INDEX 01 00:58:11
  TRACK 51 AUDIO
    TITLE "0:"
    INDEX 01 00:59:47
  TRACK 52 AUDIO
    TITLE "13:cjc020_5173"
    INDEX 01 01:00:27
  TRACK 53 AUDIO
    TITLE "0:"
    INDEX 01 01:01:27
  TRACK 54 AUDIO
    TITLE "14:cjc020_5174"
    INDEX 01 01:01:33
  TRACK 55 AUDIO
    TITLE "0:"
    INDEX 01 01:03:26
  TRACK 56 AUDIO
    TITLE "13:cjc020_5175"
    INDEX 01 01:04:05
  TRACK 57 AUDIO
    TITLE "0:"
    INDEX 01 01:05:13
  TRACK 58 AUDIO
    TITLE "14:cjc020_5176"
    INDEX 01 01:05:19
  TRACK 59 AUDIO
    TITLE "0:"
    INDEX 01 01:06:24
  TRACK 60 AUDIO
    TITLE "13:cjc020_5177"
    INDEX 01 01:07:02
  TRACK 61 AUDIO
    TITLE "0:"
    INDEX 01 01:08:13
  TRACK 62 AUDIO
    TITLE "14:cjc020_5178"
    INDEX 01 01:08:17
  TRACK 63 AUDIO
    TITLE "0:"
    INDEX 01 01:10:43
  TRACK 64 AUDIO
    TITLE "13:cjc020_5179"
    INDEX 01 01:11:23
  TRACK 65 AUDIO
    TITLE "0:"
    INDEX 01 01:12:26
  TRACK 66 AUDIO
    TITLE "14:cjc020_5180"
    INDEX 01 01:12:32
  TRACK 67 AUDIO
    TITLE "0:"
    INDEX 01 01:14:45
  TRACK 68 AUDIO
    TITLE "13:cjc020_5181"
    INDEX 01 01:15:27
  TRACK 69 AUDIO
    TITLE "0:"
    INDEX 01 01:16:69
  TRACK 70 AUDIO
    TITLE "14:cjc020_5182"
    INDEX 01 01:16:71
  TRACK 71 AUDIO
    TITLE "0:"
    INDEX 01 01:18:15
  TRACK 72 AUDIO
    TITLE "13:cjc020_5183"
    INDEX 01 01:18:70
  TRACK 73 AUDIO
    TITLE "0:"
    INDEX 01 01:20:02
  TRACK 74 AUDIO
    TITLE "14:cjc020_5184"
    INDEX 01 01:20:06
  TRACK 75 AUDIO
    TITLE "0:"
    INDEX 01 01:22:21
  TRACK 76 AUDIO
    TITLE "13:cjc020_5185"
    INDEX 01 01:23:01
  TRACK 77 AUDIO
    TITLE "0:"
    INDEX 01 01:24:02
  TRACK 78 AUDIO
    TITLE "14:cjc020_5186"
    INDEX 01 01:24:04
  TRACK 79 AUDIO
    TITLE "0:"
    INDEX 01 01:25:25
